<?xml version="1.0" standalone="no"?>
<!DOCTYPE svg PUBLIC "-//W3C//DTD SVG 20010904//EN"
 "http://www.w3.org/TR/2001/REC-SVG-20010904/DTD/svg10.dtd">
<svg version="1.0" xmlns="http://www.w3.org/2000/svg"
 width="500.000000pt" height="500.000000pt" viewBox="0 0 500.000000 500.000000"
 preserveAspectRatio="xMidYMid meet">

<g transform="translate(0.000000,500.000000) scale(0.100000,-0.100000)"
fill="#000000" stroke="none">
<path d="M2856 4723 c-11 -29 -23 -53 -27 -53 -4 0 -15 -20 -26 -45 -20 -51
-26 -54 -40 -23 -8 18 -11 12 -20 -43 -12 -68 -65 -178 -71 -146 -7 33 -19 17
-25 -32 -3 -27 -16 -86 -28 -130 -18 -65 -25 -79 -36 -70 -10 9 -13 5 -13 -23
0 -19 -7 -59 -16 -89 l-17 -54 -11 40 c-15 50 -22 39 -30 -51 -7 -75 -23 -145
-25 -109 -1 11 -6 27 -11 35 -15 24 -28 1 -40 -75 -12 -78 -24 -99 -34 -61
-11 46 -24 28 -31 -41 -3 -38 -8 -83 -11 -102 -5 -31 -6 -32 -19 -15 -24 34
-39 3 -37 -79 2 -87 -6 -136 -19 -116 -20 33 -41 -19 -66 -162 -13 -79 -26
-145 -27 -147 -2 -1 -6 17 -10 40 -9 59 -26 108 -37 108 -5 0 -8 -67 -6 -152
1 -84 -2 -189 -8 -233 l-10 -80 -5 117 c-3 64 -8 120 -13 124 -17 17 -27 -19
-42 -151 -9 -77 -26 -180 -39 -230 l-23 -90 0 73 c0 40 -3 75 -7 79 -17 17
-32 -29 -47 -145 -13 -100 -17 -115 -18 -72 -1 30 -8 69 -16 85 -12 27 -14 12
-15 -145 -1 -104 -5 -165 -10 -150 -4 14 -8 44 -9 68 -1 62 -19 43 -27 -31
l-7 -62 -12 34 c-14 43 -25 29 -32 -43 l-6 -53 -29 15 c-17 8 -33 11 -38 6 -5
-5 -2 -36 5 -69 8 -33 15 -80 15 -104 0 -37 -2 -42 -15 -31 -13 11 -15 0 -15
-91 l0 -104 -20 33 c-24 39 -47 41 -61 5 -8 -22 -6 -37 11 -73 28 -61 40 -143
40 -280 l0 -115 -20 43 c-10 23 -21 42 -23 42 -2 0 -4 -48 -3 -107 1 -133 -13
-271 -24 -252 -14 21 -18 -1 -24 -136 -3 -66 -13 -162 -21 -214 -15 -100 -9
-136 21 -124 15 5 54 82 54 105 0 5 27 69 59 141 32 73 69 162 82 200 15 41
29 65 36 63 13 -5 85 169 105 253 15 68 28 65 22 -7 l-4 -57 31 90 c38 111 69
253 69 321 0 91 49 116 51 26 l0 -47 24 67 c29 84 35 94 45 78 13 -21 44 131
44 222 1 91 8 113 29 84 11 -15 12 -11 9 23 -2 23 -1 49 3 58 5 14 10 10 25
-22 16 -35 18 -37 19 -15 0 14 -8 68 -19 120 -11 52 -20 102 -20 109 0 28 22
-6 37 -56 13 -47 13 -46 8 53 -4 77 -2 105 9 120 18 24 24 17 41 -43 l13 -48
3 80 c3 94 1 203 -6 260 -4 27 -1 47 9 60 14 19 15 18 31 -19 9 -22 20 -58 25
-80 l8 -41 1 48 c1 55 -23 182 -46 239 -11 29 -13 42 -5 50 14 14 41 -7 57
-45 11 -27 12 -25 18 38 4 37 4 85 1 108 -7 51 9 97 36 104 21 6 21 7 -2 97
-13 52 -4 86 24 86 20 0 21 3 15 79 -3 43 -3 81 0 85 4 3 15 -1 25 -11 17 -15
18 -13 18 50 0 36 3 72 6 81 8 21 30 20 44 -1 8 -14 9 5 5 75 -4 59 -3 92 4
92 5 0 13 -10 17 -22 6 -20 7 -20 17 -3 6 11 10 45 10 78 0 41 4 57 12 53 14
-5 25 76 25 176 0 49 3 58 16 56 24 -4 57 94 51 150 -4 39 -3 43 17 40 17 -3
22 4 30 40 5 23 12 42 17 42 4 0 11 15 14 33 4 17 14 45 22 60 8 17 13 49 11
80 l-3 52 -19 -52z"/>
<path d="M3511 4352 c-8 -23 -20 -47 -27 -53 -7 -6 -18 -27 -25 -47 -10 -31
-13 -34 -24 -19 -18 25 -22 22 -28 -33 -3 -27 -16 -67 -29 -90 -22 -39 -38
-51 -38 -29 0 5 -4 7 -10 4 -5 -3 -10 -20 -10 -36 0 -38 -42 -207 -48 -191 -9
27 -22 9 -23 -30 0 -24 -7 -59 -14 -78 l-13 -35 -7 33 c-12 53 -22 37 -29 -50
-4 -46 -11 -87 -16 -92 -7 -7 -10 -2 -10 11 0 12 -4 24 -9 28 -15 9 -28 -24
-35 -87 -8 -59 -19 -74 -29 -37 -9 33 -27 12 -27 -30 0 -21 -3 -59 -6 -85 -6
-43 -8 -46 -24 -31 -16 14 -18 14 -24 0 -3 -9 -6 -53 -6 -97 0 -65 -3 -79 -14
-75 -25 10 -37 -20 -61 -149 -24 -130 -35 -162 -35 -104 0 41 -20 111 -30 105
-5 -3 -8 -80 -9 -172 -1 -93 -5 -186 -10 -208 -7 -33 -9 -20 -10 67 -2 171
-31 152 -50 -32 -6 -58 -19 -139 -28 -180 l-18 -75 -5 54 c-5 57 -25 79 -35
39 -3 -13 -12 -70 -19 -128 -14 -104 -14 -104 -16 -40 -1 36 -5 74 -10 85 -5
13 -9 -32 -9 -120 -1 -77 -6 -147 -11 -155 -7 -11 -10 -6 -11 20 0 19 -4 44
-8 55 -6 15 -10 5 -16 -40 -5 -33 -10 -53 -12 -45 -13 45 -13 45 -23 30 -6 -8
-10 -27 -10 -42 0 -48 -8 -57 -40 -45 -16 6 -31 9 -34 7 -2 -3 2 -30 10 -60
19 -75 19 -131 -1 -124 -13 5 -15 -8 -15 -82 -1 -85 -2 -88 -16 -61 -8 15 -21
27 -29 27 -21 0 -30 -49 -16 -84 25 -62 32 -104 36 -236 5 -132 5 -134 -11
-92 -9 23 -19 42 -22 42 -4 0 -7 -53 -8 -118 0 -129 -11 -223 -23 -203 -5 7
-11 -36 -15 -96 -4 -59 -13 -152 -21 -207 -7 -54 -11 -105 -8 -112 13 -34 47
0 66 64 8 26 37 97 64 157 28 61 61 138 73 173 13 35 26 58 30 52 8 -13 60
109 89 210 l19 65 2 -50 2 -50 28 85 c34 101 60 224 60 279 0 49 8 71 26 71
14 0 18 -21 14 -67 -3 -41 9 -24 31 46 13 41 27 67 34 65 16 -7 36 83 42 194
5 74 8 90 19 81 10 -8 13 -1 16 38 l3 48 22 -40 c17 -30 22 -34 18 -15 -2 14
-9 52 -15 85 -5 33 -14 75 -19 93 -6 18 -6 32 -1 32 12 0 30 -33 32 -62 1 -13
4 21 7 75 6 102 19 125 37 67 l11 -34 8 33 c4 19 6 95 4 169 -5 170 15 189 51
47 8 -35 9 -31 5 30 -3 39 -12 95 -21 125 -31 107 -18 148 23 75 l23 -40 0
110 c0 84 4 116 16 133 8 12 20 20 25 16 7 -4 7 8 2 33 -4 21 -8 58 -8 83 0
38 3 45 19 43 17 -1 18 4 12 74 l-7 75 25 -6 c26 -6 26 -6 26 60 0 61 1 66 20
61 22 -6 22 -3 21 93 l-1 55 19 -22 19 -23 7 49 c4 28 4 60 0 72 -6 17 -4 21
8 16 16 -6 27 53 27 152 0 42 3 52 14 48 20 -8 46 71 46 136 0 40 3 47 13 38
16 -12 27 -5 27 18 0 9 7 29 15 45 8 15 15 35 15 43 0 8 7 30 16 48 9 19 14
51 12 76 l-3 44 -14 -43z"/>
<path d="M1880 4037 c0 -8 -9 -24 -19 -36 -11 -13 -22 -28 -25 -34 -5 -9 -8
-9 -12 1 -10 22 -24 13 -24 -15 0 -16 -9 -41 -20 -58 -11 -16 -20 -24 -20 -17
0 6 -4 12 -10 12 -5 0 -10 -12 -10 -26 0 -41 -22 -117 -30 -104 -4 7 -10 -8
-14 -34 -8 -50 -19 -59 -31 -23 -6 17 -10 8 -14 -38 -5 -50 -8 -57 -17 -41
-17 28 -34 10 -34 -37 l0 -42 -20 25 -20 25 0 -58 c0 -55 -1 -57 -20 -47 -19
10 -20 8 -20 -49 0 -50 -3 -59 -17 -57 -15 1 -20 -13 -28 -84 l-10 -85 -18 48
c-20 51 -44 65 -33 20 4 -16 9 -73 11 -128 3 -77 2 -87 -4 -44 -4 31 -11 61
-15 68 -17 27 -26 5 -27 -66 -1 -81 -25 -209 -28 -148 -1 17 -5 36 -10 44 -18
28 -31 -2 -32 -72 -1 -69 -2 -70 -10 -28 -13 67 -26 69 -18 4 4 -32 7 -76 7
-98 l0 -40 -13 45 -12 45 -7 -30 c-11 -45 -14 -52 -15 -32 -2 31 -21 18 -21
-14 0 -32 2 -32 -49 -11 -11 4 -13 1 -6 -14 22 -52 30 -97 18 -101 -8 -3 -10
-20 -6 -56 6 -51 6 -52 -14 -34 -43 37 -58 8 -24 -47 22 -36 37 -89 46 -166
l6 -55 -19 28 -19 28 5 -106 c3 -58 1 -105 -4 -105 -5 0 -9 -49 -9 -109 0 -60
3 -107 7 -105 4 2 20 39 37 82 40 105 76 183 95 207 15 20 15 20 29 0 16 -21
15 -25 29 138 4 38 18 38 44 -1 l22 -32 7 75 c4 41 5 85 1 99 -7 30 17 54 37
37 16 -13 27 -5 27 21 0 21 20 24 38 6 18 -18 16 46 -3 108 -17 58 -17 54 -7
54 4 0 15 -12 25 -27 l18 -28 -5 50 -5 50 19 -35 c15 -28 19 -31 20 -14 0 12
-7 40 -15 63 -14 41 -10 51 14 29 10 -11 12 -6 9 26 -3 45 13 58 30 24 9 -20
11 -18 11 24 1 26 -4 70 -10 98 -14 63 1 88 25 44 14 -28 15 -28 16 -6 0 13
-12 48 -26 78 -30 64 -24 82 14 39 l25 -30 -6 73 c-7 68 -6 74 13 79 18 5 18
7 5 40 -21 50 -19 66 6 60 15 -4 19 -2 15 8 -2 7 -8 30 -12 50 -6 34 -5 37 12
31 17 -5 19 -2 16 34 -3 31 -1 40 11 40 8 0 18 -6 20 -12 10 -24 7 16 -3 51
-12 42 -4 53 17 26 14 -19 15 -17 11 27 -2 27 1 49 7 51 5 2 9 31 8 65 -1 46
2 60 11 56 15 -6 26 25 26 73 0 25 4 31 15 27 9 -4 15 0 15 8 0 8 9 33 20 56
21 44 27 92 10 92 -5 0 -10 -6 -10 -13z"/>
<path d="M3975 3240 c-25 -41 -32 -47 -41 -35 -9 12 -13 8 -18 -23 -5 -36 -46
-91 -46 -63 0 7 -4 9 -10 6 -5 -3 -10 -23 -11 -43 -1 -50 -13 -88 -27 -84 -7
1 -12 -10 -13 -25 0 -16 -4 -37 -8 -48 -8 -19 -8 -19 -15 3 -13 40 -26 23 -27
-35 0 -49 -2 -55 -11 -35 -15 30 -28 28 -29 -5 0 -16 -4 -37 -9 -48 -7 -18 -8
-19 -15 -2 -14 34 -25 16 -25 -40 0 -44 -3 -54 -12 -45 -24 24 -31 12 -24 -48
6 -53 5 -59 -10 -53 -21 8 -34 -13 -34 -57 0 -19 -3 -53 -7 -74 l-6 -39 -16
43 c-16 44 -50 73 -37 32 13 -39 26 -137 25 -182 l-1 -45 -15 63 c-21 91 -37
75 -44 -44 -7 -108 -27 -185 -28 -107 -1 43 -17 66 -27 39 -3 -8 -9 -45 -13
-83 -7 -52 -9 -59 -10 -28 -1 22 -7 49 -12 60 -9 21 -3 -115 7 -165 8 -35 -3
-21 -20 26 l-15 39 -1 -40 c-1 -39 -1 -39 -14 -16 -11 20 -14 21 -19 6 -4 -9
-7 -25 -7 -36 0 -16 -3 -18 -19 -9 -35 18 -38 11 -19 -47 15 -42 16 -58 7 -63
-8 -5 -10 -24 -7 -55 l6 -46 -24 22 c-19 17 -27 20 -36 11 -9 -9 -5 -24 14
-64 32 -64 35 -76 46 -156 l9 -63 -24 28 c-19 21 -23 23 -18 8 4 -11 9 -60 12
-109 5 -66 3 -87 -5 -82 -9 5 -12 -23 -12 -106 0 -122 4 -125 40 -28 29 78
102 230 110 230 4 0 12 -10 17 -22 9 -21 11 -20 16 17 3 22 9 66 12 98 4 31
11 57 16 57 5 0 18 -14 28 -31 25 -41 31 -23 31 92 0 79 2 89 18 89 10 0 23
-5 30 -12 9 -9 12 -7 12 9 0 28 15 37 40 23 17 -9 20 -8 20 8 0 16 -20 100
-35 147 -4 13 4 8 24 -15 l31 -35 -6 35 c-3 19 -7 41 -10 48 -6 21 12 13 25
-10 10 -21 11 -20 7 12 -3 19 -8 46 -11 60 l-7 25 21 -24 21 -23 -6 46 c-8 55
10 63 31 14 l14 -33 0 45 c0 25 -6 74 -14 110 -7 35 -11 68 -9 72 9 14 21 9
32 -14 11 -23 11 -23 11 3 1 14 -10 48 -24 75 -29 58 -29 54 -11 54 8 0 23
-12 34 -27 l21 -28 -6 78 c-5 67 -4 77 11 77 19 0 19 -2 1 50 -16 46 -13 62
12 53 13 -5 15 -1 9 20 -21 87 -21 80 4 67 22 -12 22 -11 16 24 -9 45 0 62 21
44 14 -11 15 -6 9 42 -6 51 -6 53 9 36 15 -20 15 -20 17 0 0 10 0 32 -1 48 -2
20 1 26 9 21 10 -6 11 9 8 59 -3 50 -1 65 8 62 17 -6 35 50 27 82 -5 20 -3 24
9 19 12 -4 21 9 38 54 12 33 20 70 18 84 -3 21 -6 19 -33 -25z"/>
</g>
</svg>
